<svg width="74" height="93" viewBox="0 0 74 93" fill="none" xmlns="http://www.w3.org/2000/svg">
<path d="M44.5749 16.8353C46.706 9.14232 46.0596 4.43914 45.8107 2.62793C45.7773 2.38494 45.7508 2.19159 45.7364 2.03416C44.3535 1.3485 40.9645 0 35.7073 0C35.1749 0 34.6296 0.0142037 34.0867 0.0421037C28.6218 0.323555 24.9257 2.5542 23.8807 3.26269C23.8757 3.40456 23.8648 3.57382 23.8516 3.77766C23.7353 5.5827 23.4338 10.2634 26.0278 17.5784C27.3436 16.6617 30.2822 15.0434 34.9 14.7851C35.2755 14.764 35.6546 14.7534 36.0269 14.7534C40.2385 14.7535 43.2165 16.0781 44.5749 16.8353Z" fill="#C81F6D"/>
<path d="M46.5547 1.71391C46.5632 1.71533 46.5713 1.716 46.5806 1.71859C46.5713 1.71608 46.5633 1.71541 46.5547 1.71391Z" fill="#E53888"/>
<path d="M46.6889 1.76136C46.6883 1.76111 46.6881 1.76111 46.6875 1.76077C46.688 1.76103 46.6884 1.76111 46.6889 1.76136Z" fill="#E53888"/>
<path d="M46.4389 1.75216C46.4246 1.77592 46.4159 1.80728 46.4175 1.85201C46.4159 1.80728 46.4247 1.776 46.4389 1.75216Z" fill="#E53888"/>
<path d="M46.5072 1.71315C46.4868 1.71543 46.4709 1.7238 46.4575 1.73572C46.4708 1.7238 46.4868 1.71543 46.5072 1.71315Z" fill="#E53888"/>
<path d="M57.9054 83.1097L59.1411 83.2026L59.0912 83.2715C60.5438 83.4421 63.1715 83.699 65.5252 83.699C68.1662 83.699 71.4043 83.2852 73.67 82.9354C60.3817 78.0879 52.5436 65.5993 47.6548 55.8833C46.2639 58.5005 41.2425 68.7582 38.2224 74.9498C40.8072 79.9015 43.6982 83.8661 46.8182 86.7369C49.8979 89.5706 53.3014 91.4294 56.9493 92.2725C56.7169 91.3279 56.4211 89.8983 56.3329 88.4567C56.167 85.7445 56.8425 84.1852 57.148 83.63L57.1985 83.1074L57.8323 83.1067C57.8474 83.1066 57.8717 83.1071 57.9054 83.1097Z" fill="#E53888"/>
<path d="M24.7336 89.7125C29.2969 86.5426 32.3035 81.9374 34.873 77.4331C37.9712 72.0015 40.9459 66.4426 43.1912 62.2064C46.8595 55.2858 50.2247 48.1012 53.1935 40.852C53.4244 40.2883 53.658 39.7254 53.8913 39.1627C56.6478 32.5177 59.2516 26.2412 57.518 19.1881C57.4021 18.7169 57.2623 18.2267 57.1022 17.731C55.2389 11.9577 50.0793 5.07604 47.2487 2.93585C47.5406 5.1993 47.9779 10.2423 45.6521 18.1014C43.6794 24.7676 40.2516 30.816 36.9366 36.6653C36.3279 37.7393 35.6986 38.8498 35.0877 39.9473C33.5027 43.1159 31.6994 46.2478 29.9554 49.2765C29.0887 50.7815 28.1926 52.3378 27.3387 53.8722C26.7064 55.0085 26.0779 56.1886 25.4701 57.3299C23.7169 60.6218 21.904 64.0258 19.6549 67.0554C16.256 71.6337 13.1249 74.9911 9.80118 77.6216C7.80693 79.2 5.71679 80.5556 3.58896 81.6509C3.36347 81.767 3.08456 81.9192 2.76827 82.0918C1.97693 82.5236 0.992056 83.0609 0 83.5039C2.32796 83.8549 5.48869 84.2414 8.11755 84.2414C11.6486 84.2414 15.7367 83.6912 15.9721 83.6449L16.4128 83.5582L16.6734 83.925C16.7963 84.0995 17.8684 85.7289 17.6584 89.164C17.5708 90.5959 17.2853 92.0189 17.0492 93C17.468 92.8869 17.9987 92.7513 18.6737 92.5805C19.3009 92.4218 20.0813 92.2244 20.229 92.166C21.7659 91.5468 23.2815 90.7212 24.7336 89.7125Z" fill="#E53888"/>
<path d="M14.7816 32.7326C16.6538 38.5326 20.2165 45.5411 25.6615 54.1312C29.0034 47.7976 32.1967 42.0729 35.1649 37.0941C34.9989 36.7771 34.8117 36.4262 34.7281 36.3125C30.3835 30.3122 27.1304 24.473 25.0561 18.9525C22.4239 11.953 22.3155 7.11848 22.4161 4.66911C20.1716 7.08677 15.4213 12.8556 13.6899 19.9861C12.8044 23.6321 13.1514 27.6824 14.7816 32.7326Z" fill="#E53888"/>
</svg>
