<svg width="33" height="42" viewBox="0 0 33 42" fill="none" xmlns="http://www.w3.org/2000/svg">
<path d="M19.967 7.54125C20.9217 4.09524 20.6321 1.98848 20.5206 1.17716C20.5056 1.06832 20.4937 0.981707 20.4873 0.91119C19.8678 0.604051 18.3498 0 15.9948 0C15.7564 0 15.5121 0.00636246 15.2689 0.0188601C12.8209 0.144935 11.1653 1.14414 10.6972 1.4615C10.695 1.52505 10.6901 1.60087 10.6842 1.69218C10.6321 2.50074 10.497 4.59742 11.659 7.87414C12.2484 7.4635 13.5647 6.7386 15.6332 6.62287C15.8014 6.61344 15.9712 6.6087 16.138 6.6087C18.0246 6.60874 19.3585 7.20207 19.967 7.54125Z" fill="#FFB6D8"/>
<path d="M20.8538 0.7677C20.8577 0.768343 20.8613 0.768645 20.8655 0.769817C20.8613 0.768683 20.8577 0.768381 20.8538 0.7677Z" fill="white"/>
<path d="M20.914 0.788962C20.9137 0.788848 20.9136 0.788848 20.9133 0.788696C20.9136 0.78881 20.9138 0.788848 20.914 0.788962Z" fill="white"/>
<path d="M20.802 0.784851C20.7956 0.795493 20.7917 0.809543 20.7924 0.829577C20.7917 0.809543 20.7956 0.795531 20.802 0.784851Z" fill="white"/>
<path d="M20.8326 0.767395C20.8234 0.768426 20.8163 0.772206 20.8103 0.777589C20.8162 0.772206 20.8234 0.768426 20.8326 0.767395Z" fill="white"/>
<path d="M25.9384 37.2284L26.4918 37.2701L26.4695 37.3009C27.1202 37.3774 28.2973 37.4924 29.3516 37.4924C30.5346 37.4924 31.9851 37.3071 33 37.1504C27.0476 34.979 23.5365 29.3848 21.3467 25.0326C20.7236 26.2049 18.4743 30.7998 17.1215 33.5733C18.2793 35.7914 19.5743 37.5673 20.9719 38.8533C22.3514 40.1226 23.876 40.9552 25.5101 41.3329C25.406 40.9098 25.2734 40.2694 25.2339 39.6236C25.1596 38.4087 25.4622 37.7102 25.5991 37.4615L25.6217 37.2274L25.9056 37.2271C25.9124 37.2271 25.9232 37.2273 25.9384 37.2284Z" fill="white"/>
<path d="M11.0793 40.1861C13.1234 38.7661 14.4702 36.7033 15.6211 34.6856C17.009 32.2526 18.3414 29.7625 19.3472 27.8649C20.9904 24.7649 22.4978 21.5466 23.8277 18.2994C23.9311 18.0468 24.0357 17.7947 24.1402 17.5427C25.375 14.5661 26.5413 11.7545 25.7648 8.59515C25.7129 8.38409 25.6503 8.16451 25.5786 7.94247C24.7439 5.35634 22.4327 2.27374 21.1648 1.31506C21.2955 2.32896 21.4914 4.58792 20.4495 8.10839C19.5659 11.0944 18.0304 13.8038 16.5455 16.4239C16.2728 16.905 15.9909 17.4025 15.7173 17.8941C15.0073 19.3134 14.1995 20.7164 13.4183 22.073C13.0301 22.7472 12.6287 23.4443 12.2462 24.1317C11.9629 24.6407 11.6814 25.1693 11.4092 25.6805C10.6238 27.1551 9.81176 28.6799 8.80427 30.037C7.28175 32.0878 5.87922 33.5917 4.39037 34.77C3.49706 35.4771 2.5608 36.0843 1.60765 36.5749C1.50664 36.6269 1.38171 36.6951 1.24003 36.7724C0.885551 36.9658 0.444385 37.2066 0 37.405C1.04279 37.5622 2.45862 37.7354 3.6362 37.7354C5.21791 37.7354 7.04915 37.4889 7.15458 37.4681L7.35201 37.4293L7.46873 37.5936C7.52379 37.6718 8.00404 38.4017 7.90997 39.9404C7.87073 40.5818 7.74284 41.2192 7.63707 41.6587C7.82468 41.608 8.0624 41.5473 8.36477 41.4708C8.6457 41.3997 8.99529 41.3113 9.06145 41.2851C9.74988 41.0078 10.4288 40.6379 11.0793 40.1861Z" fill="white"/>
<path d="M6.62131 14.6624C7.45994 17.2604 9.05585 20.3998 11.4949 24.2477C12.9919 21.4106 14.4223 18.8462 15.7519 16.6161C15.6775 16.474 15.5937 16.3168 15.5562 16.2659C13.6101 13.5782 12.1529 10.9625 11.2237 8.48963C10.0446 5.35428 9.99605 3.18867 10.0411 2.09149C9.0357 3.17447 6.90785 5.75856 6.13228 8.95264C5.73565 10.5858 5.89108 12.4001 6.62131 14.6624Z" fill="white"/>
</svg>
